<?xml version="1.0" encoding="utf-8"?>
<!-- Generator: Adobe Illustrator 19.2.0, SVG Export Plug-In . SVG Version: 6.00 Build 0)  -->
<svg version="1.1"
	 id="Layer_1" xmlns:cc="http://creativecommons.org/ns#" xmlns:dc="http://purl.org/dc/elements/1.1/" xmlns:inkscape="http://www.inkscape.org/namespaces/inkscape" xmlns:rdf="http://www.w3.org/1999/02/22-rdf-syntax-ns#" xmlns:sodipodi="http://sodipodi.sourceforge.net/DTD/sodipodi-0.dtd" xmlns:svg="http://www.w3.org/2000/svg"
	 xmlns="http://www.w3.org/2000/svg" xmlns:xlink="http://www.w3.org/1999/xlink" x="0px" y="0px" viewBox="-82.7 64.2 45.7 59.8"
	 enable-background="new -82.7 64.2 45.7 59.8" xml:space="preserve"
   width="46" height="60"
>
<path fill="#58595B" d="M-58.4,96.2c0.3,0.4,0.7,0.9,1.1,1.3c-0.4,0.1-0.9,0.2-1.5,0.2c-1.3,0.2-3,0.6-5.1,1.2
	c-0.1,0-0.2,0.1-0.3,0.1c1.1-1.8,2.2-4.1,3.2-6.5C-60.3,93.7-59.4,94.9-58.4,96.2z M-36.9,64.2V124h-45.7V64.2H-36.9z M-43.3,101
	c-0.4-0.8-1.1-1.6-2-2.2c-0.7-0.5-1.6-0.8-2.8-1.1c-1-0.3-2.2-0.4-3.3-0.5c-1.1-0.1-2.2-0.1-3.4,0c-0.7-0.8-1.4-1.6-2-2.4
	c-1.3-1.6-2.3-3.2-3.1-4.6c-0.1-0.2-0.2-0.3-0.2-0.5c1-3.1,1.5-6.1,1.7-7.9l0.1-0.6c0.2-1.5,0.3-2.6-1-3.3l0,0
	c-0.3-0.2-0.6-0.3-0.8-0.4c-0.4-0.1-0.8-0.1-1.1,0c-0.2,0-0.4,0-0.7,0.2c-0.4,0.1-1,0.4-1.4,1.1c-0.3,0.5-0.5,1.2-0.7,2.1
	c-0.1,1-0.1,1.9-0.1,2.9c0.1,1,0.3,2.2,0.7,3.5c0.2,0.7,0.5,1.6,0.9,2.6c-0.1,0.4-0.3,0.8-0.4,1.2c-1.4,3.6-3.3,6.9-4.6,9
	c-1.2,0.4-2.2,0.9-3.1,1.3c-1.8,0.9-3.4,1.9-4.5,3c-0.9,0.8-1.4,1.7-1.6,2.6c-0.2,0.8-0.1,1.5,0.2,2c0.3,0.6,0.8,0.9,1.6,0.9
	c0.2,0,0.3,0,0.5,0c1-0.2,2-0.7,3.1-1.6c1.5-1.2,3.1-3.2,4.9-5.8c0.1-0.2,0.2-0.3,0.3-0.5c0.9-0.3,1.8-0.6,2.7-0.9
	c2-0.6,3.6-0.9,4.9-1.1c1.1-0.2,2-0.3,2.8-0.4c0.5,0.5,1,1,1.5,1.5c1.2,1.2,2.3,2.1,3.4,2.9c1.1,0.8,2.1,1.3,2.9,1.6
	c0.9,0.3,1.8,0.3,2.6,0c1.2-0.4,1.7-1.1,2-1.6C-42.8,103-42.8,101.9-43.3,101z M-74.5,107.4c0,0.1,0,0.1,0,0.2
	c0.6-0.1,1.2-0.5,1.9-1.1c0.6-0.5,1.6-1.5,2.8-3c-2,1-3.2,2-3.7,2.5C-74.2,106.7-74.4,107.1-74.5,107.4z M-60.5,81.6l0.1-0.7
	c0-0.4,0.1-0.8,0.1-1.1c-0.1-0.1-0.4-0.2-0.4-0.2c0,0-0.2,0.1-0.2,0.1c-0.1,0-0.1,0-0.2,0c-0.1,0-0.2,0.1-0.3,0.2
	c-0.1,0.1-0.2,0.4-0.3,1.2c-0.1,0.8-0.1,1.6,0,2.4c0.1,0.7,0.2,1.6,0.5,2.6C-60.9,84.4-60.6,82.8-60.5,81.6z M-46.4,100.7
	c-0.5-0.3-1.2-0.6-2.1-0.8c-0.9-0.2-2-0.4-3-0.5c-0.4,0-0.8,0-1.2-0.1c0,0,0.1,0.1,0.1,0.1c1.1,1.1,2.1,2,3.1,2.7
	c0.9,0.6,1.7,1.1,2.3,1.2c0.5,0.1,0.9,0.1,1.3,0c0.2-0.1,0.5-0.2,0.7-0.5c0.1-0.2,0.1-0.6-0.1-1C-45.4,101.5-45.9,101-46.4,100.7z"
	/>
</svg>
